<?xml version="1.0" encoding="UTF-8" standalone="no"?>
<!-- Created with Inkscape (http://www.inkscape.org/) -->

<svg
   xmlns:dc="http://purl.org/dc/elements/1.1/"
   xmlns:cc="http://creativecommons.org/ns#"
   xmlns:rdf="http://www.w3.org/1999/02/22-rdf-syntax-ns#"
   xmlns:svg="http://www.w3.org/2000/svg"
   xmlns="http://www.w3.org/2000/svg"
   xmlns:sodipodi="http://sodipodi.sourceforge.net/DTD/sodipodi-0.dtd"
   xmlns:inkscape="http://www.inkscape.org/namespaces/inkscape"
   width="350"
   height="150"
   viewBox="0 0 349.99999 149.99999"
   id="svg2"
   version="1.1"
   inkscape:version="0.91 r13725"
   sodipodi:docname="Error.svg">
  <defs
     id="defs4" />
  <sodipodi:namedview
     id="base"
     pagecolor="#ffffff"
     bordercolor="#666666"
     borderopacity="1.0"
     inkscape:pageopacity="0.0"
     inkscape:pageshadow="2"
     inkscape:zoom="0.98994949"
     inkscape:cx="387.93911"
     inkscape:cy="84.669169"
     inkscape:document-units="px"
     inkscape:current-layer="layer1"
     showgrid="false"
     fit-margin-top="0"
     fit-margin-left="100"
     fit-margin-right="100"
     fit-margin-bottom="0"
     inkscape:window-width="1366"
     inkscape:window-height="705"
     inkscape:window-x="-8"
     inkscape:window-y="-8"
     inkscape:window-maximized="1"
     units="px" />
  <metadata
     id="metadata7">
    <rdf:RDF>
      <cc:Work
         rdf:about="">
        <dc:format>image/svg+xml</dc:format>
        <dc:type
           rdf:resource="http://purl.org/dc/dcmitype/StillImage" />
        <dc:title></dc:title>
      </cc:Work>
    </rdf:RDF>
  </metadata>
  <g
     inkscape:label="Capa 1"
     inkscape:groupmode="layer"
     id="layer1"
     transform="translate(-1.429,-583.78901)">
    <g
       id="g3347"
       transform="matrix(0.3,0,0,0.3,65.857571,517.08033)">
      <path
         style="fill:#fcfafa"
         d="m 118.57143,472.36223 0,-250 250,0 250,0 0,250 0,250 -250,0 -250,0 0,-250 z"
         id="path3363"
         inkscape:connector-curvature="0" />
      <path
         style="fill:#ee9f9f"
         d="M 277.57143,693.78621 C 273.6227,692.09645 149.44044,568.74252 146.93312,564.0193 c -0.83004,-1.56361 -1.23634,-3.11575 -0.90289,-3.4492 0.33345,-0.33346 29.50882,28.28336 64.83415,63.59293 l 64.22788,64.1992 90.99249,0 90.99249,0 64.2471,-64.25288 64.24709,-64.25289 0,-91.00016 0,-91.00017 -61.564,-61.49695 c -33.8602,-33.82332 -62.46584,-62.73445 -63.56809,-64.24695 -6.91348,-9.4866 7.57658,4.21785 63.96816,60.5 43.02974,42.94623 63.97439,64.53403 65.24649,67.25 1.78666,3.81456 1.87453,8.11144 1.89548,92.6849 0.0147,59.30376 -0.32451,89.61754 -1.02382,91.5 -1.39864,3.76493 -125.49971,128.09767 -129.6721,129.91416 -4.97471,2.16579 -178.19852,2.00032 -183.28212,-0.17508 z m -61.9833,-72.92261 -62.5167,-62.49863 0.31359,-88.75137 0.3136,-88.75137 62.1834,-62.25 62.18341,-62.25 88.3878,0 88.38779,0 61.61521,61.16869 c 33.88836,33.64279 62.18498,62.45748 62.88139,64.03265 0.99675,2.25453 1.20954,21.37139 1,89.83838 l -0.26619,86.97443 -62.5167,62.49292 -62.5167,62.49293 -88.4666,0 -88.4666,0 -62.5167,-62.49863 z m 235.203,-116.35166 c 6.8902,-2.99664 13.04933,-9.15853 16.39487,-16.40223 2.67319,-5.78794 2.88543,-7.13015 2.88543,-18.24748 0,-11.11733 -0.21224,-12.45954 -2.88543,-18.24748 -3.30283,-7.15122 -9.46127,-13.36687 -16.4389,-16.59163 -3.80553,-1.75875 -6.53667,-2.16089 -14.67567,-2.16089 -11.24131,0 -16.13297,1.60481 -22.83903,7.49281 -13.361,11.73111 -15.6528,37.53112 -4.74249,53.3887 3.69223,5.36647 8.95131,9.16013 16.39581,11.82716 6.74495,2.41642 19.07319,1.91247 25.90541,-1.05896 z m -21.22617,-5.08405 c -8.17541,-2.48685 -15.87941,-10.07138 -18.08608,-17.80561 -0.74696,-2.61803 -1.28941,-8.36005 -1.20545,-12.76005 0.25338,-13.27881 4.12242,-20.9095 13.07146,-25.78018 9.05541,-4.92858 18.90871,-4.6056 27.2163,0.8921 14.67299,9.71013 15.95056,39.02026 2.19668,50.39639 -5.96358,4.93261 -16.23787,7.17298 -23.19291,5.05735 z m -190.99353,3.43434 0,-3.5 -21.8,0 c -15.62222,0 -22.14006,-0.34006 -23,-1.2 -1.65047,-1.65047 -1.65047,-22.94953 0,-24.6 0.85043,-0.85043 6.82222,-1.2 20.5,-1.2 l 19.3,0 0,-3.5 0,-3.5 -19.3,0 c -13.67778,0 -19.64957,-0.34957 -20.5,-1.2 -1.91668,-1.91668 -1.6104,-20.24675 0.37143,-22.22857 1.32601,-1.32601 4.7619,-1.57143 22,-1.57143 l 20.42857,0 0,-3.5 0,-3.5 -26,0 -26,0 0,36.5 0,36.5 27,0 27,0 0,-3.5 z m 23,-11.87756 c 0,-12.34366 0.29145,-15.61943 1.47723,-16.60355 0.99228,-0.82351 4.25136,-1.10992 9.92742,-0.87244 6.60019,0.27615 9.06813,0.80793 11.27277,2.42902 3.2685,2.40336 9.68942,10.82017 16.82258,22.05174 l 5,7.87279 4.75,0.30479 c 2.93263,0.18818 4.75,-0.10992 4.75,-0.77913 0,-2.146 -13.28818,-21.63623 -18.1423,-26.60992 -5.27095,-5.4008 -5.24356,-6.45317 0.2017,-7.74907 7.47614,-1.77921 13.9406,-10.21848 13.9406,-18.19924 0,-6.25907 -4.56274,-14.38355 -9.5,-16.91585 -3.61334,-1.85326 -6.1508,-2.08239 -26.25,-2.37032 l -22.25,-0.31874 0,36.56874 0,36.56874 4,0 4,0 0,-15.37756 z m 1.25,-25.74682 c -1.90556,-1.94462 -1.72148,-22.23943 0.21631,-23.84766 2.39222,-1.98537 29.13744,-0.97374 33.26676,1.2583 8.58823,4.64224 8.18937,17.04653 -0.68913,21.43187 -4.608,2.27602 -30.79225,3.20022 -32.79394,1.15749 z m 74.75,25.82438 c 0,-10.56667 0.37124,-15.67124 1.2,-16.5 1.65561,-1.65561 15.05846,-1.53667 19.14282,0.16988 4.16069,1.73845 9.28194,7.71498 16.39247,19.13012 7.70734,12.37325 7.83834,12.5 12.9197,12.5 2.38975,0 4.34501,-0.43905 4.34501,-0.97566 0,-2.07047 -13.44215,-21.77707 -18.1501,-26.6086 -5.26302,-5.40117 -5.23457,-6.45345 0.2095,-7.74907 4.03225,-0.95962 9.14587,-4.85503 11.38143,-8.67007 3.12326,-5.3299 2.83321,-14.16585 -0.66034,-20.11647 -4.56764,-7.78014 -6.615,-8.32762 -32.53049,-8.69887 l -22.25,-0.31874 0,36.56874 0,36.56874 4,0 4,0 0,-15.3 z m 1.25,-25.81474 c -1.90526,-1.959 -1.72129,-22.24923 0.21631,-23.8573 2.39222,-1.98537 29.13744,-0.97374 33.26676,1.2583 8.332,4.50374 8.26641,16.28551 -0.11861,21.30826 -2.56526,1.53663 -5.67139,1.92824 -17.61446,2.2208 -10.88266,0.26658 -14.81184,0.0346 -15.75,-0.93006 z m 154.75,25.81474 c 0,-10.56667 0.37124,-15.67124 1.2,-16.5 1.64666,-1.64666 15.04892,-1.54066 19.09774,0.15104 4.28354,1.78978 8.40638,6.63394 17.28541,20.3096 l 7.36217,11.33936 4.52734,0 c 2.49004,0 4.52734,-0.44571 4.52734,-0.99046 0,-2.15619 -14.90527,-23.73586 -18.82661,-27.25694 -2.29537,-2.06107 -4.17339,-4.18122 -4.17339,-4.71145 0,-0.53024 1.73203,-1.43045 3.84896,-2.00048 9.57011,-2.57696 14.63996,-8.9966 14.64233,-18.54067 10e-4,-4.72476 -0.57498,-6.98191 -2.7108,-10.61987 -4.56764,-7.78014 -6.615,-8.32762 -32.53049,-8.69887 l -22.25,-0.31874 0,36.56874 0,36.56874 4,0 4,0 0,-15.3 z m 1.25,-25.81474 c -1.90526,-1.959 -1.72129,-22.24923 0.21631,-23.8573 2.39222,-1.98537 29.13744,-0.97374 33.26676,1.2583 8.21937,4.44286 8.40921,15.98098 0.34522,20.98201 -3.18055,1.97248 -5.19003,2.25711 -18.07829,2.56069 -10.86818,0.25601 -14.81309,0.0196 -15.75,-0.9437 z m -350.25,4.11474 c 0,-58.66667 0.34082,-89 1,-89 0.65918,0 1,30.33333 1,89 0,58.66667 -0.34082,89 -1,89 -0.65918,0 -1,-30.33333 -1,-89 z m 64.95981,-156.45981 c 34.89965,-34.90289 63.6789,-63.23481 63.9539,-62.95982 0.65377,0.65378 -125.10029,126.41963 -126.40778,126.41963 -0.55001,0 27.55423,-28.55691 62.45388,-63.45981 z m 68.54019,-64.54019 c -0.41026,-0.66381 29.34262,-1 88.5,-1 59.15738,0 88.91026,0.33619 88.5,1 -0.85299,1.38017 -176.14701,1.38017 -177,0 z"
         id="path3361"
         inkscape:connector-curvature="0" />
      <path
         style="fill:#f34949"
         d="m 277.75719,692.3073 c -1.27284,-0.51048 -2.03378,-1.38196 -1.69099,-1.93661 0.41158,-0.66595 31.41981,-1.00846 91.29793,-1.00846 l 90.67467,0 64.01632,-63.99309 64.01631,-63.99309 0.5,-90.25691 c 0.32918,-59.42223 0.84163,-90.17153 1.5,-90.007 0.65519,0.16375 1.08803,31.70872 1.2553,91.48608 l 0.25531,91.23616 -64.76393,64.76393 -64.76392,64.76392 -89.99138,-0.0634 c -52.85799,-0.0372 -90.94631,-0.44637 -92.30562,-0.99154 z m -61.43878,-72.69807 -61.74698,-61.753 0,-88.00785 0,-88.00786 62.26874,-62.23914 62.26875,-62.23915 87.39506,0 87.39507,0 59.08619,58.65135 c 32.49741,32.25824 60.54869,60.15163 62.33619,61.98531 l 3.25,3.33397 0,88.26771 0,88.26771 -61.753,61.74697 -61.753,61.74698 -88.50002,0 -88.50003,0 -61.74697,-61.753 z M 452.7653,505.0558 c 17.88739,-8.75148 24.7618,-33.44418 15.22624,-54.69224 -5.5466,-12.35947 -16.70418,-19.00133 -31.92011,-19.00133 -15.01943,0 -25.46891,6.07781 -31.46746,18.30264 -9.77164,19.9143 -3.01857,46.02283 14.17597,54.80669 6.81329,3.48059 8.7186,3.84323 18.82482,3.58293 8.06954,-0.20784 10.39736,-0.66828 15.16054,-2.99869 z m -29.14499,-9.94357 c -3.98628,-2.41587 -6.15651,-4.66161 -8.45576,-8.75 -2.94518,-5.23694 -3.0915,-6.02611 -3.05935,-16.5 0.0292,-9.51288 0.35535,-11.65723 2.41251,-15.86145 4.21721,-8.61872 12.77084,-13.14425 23.54681,-12.45809 8.58951,0.54694 14.68961,4.35483 18.86361,11.77532 2.66684,4.74108 3.12152,6.65977 3.47083,14.64648 0.86342,19.74122 -7.70363,30.39774 -24.43749,30.39774 -6.1065,0 -7.64861,-0.40611 -12.34116,-3.25 z m -184.04888,7.75 0,-4.5 -20.91821,0 c -11.50502,0 -21.63002,-0.27314 -22.5,-0.60699 -1.31431,-0.50435 -1.58179,-2.53355 -1.58179,-12 l 0,-11.39301 19.3,0 c 13.67778,0 19.64957,-0.34957 20.5,-1.2 1.95411,-1.95411 1.48296,-7.5782 -0.73426,-8.76482 -1.1341,-0.60695 -9.61451,-1.03518 -20.5,-1.03518 l -18.56574,0 0,-10.5 0,-10.5 20.8,0 c 14.84444,0 21.14359,-0.34359 22,-1.2 1.95411,-1.95411 1.48296,-7.5782 -0.73426,-8.76482 -1.18232,-0.63275 -11.45637,-1.03518 -26.42857,-1.03518 -20.93422,0 -24.72271,0.2284 -26.06574,1.57143 -1.7967,1.7967 -2.07345,18.27202 -0.91008,54.17857 l 0.6561,20.25 27.84127,0 27.84128,0 0,-4.5 z m 23.77588,-11.84565 0.27588,-15.84565 9.41023,0.34565 c 8.8668,0.32569 9.59292,0.5189 12.5737,3.34565 1.73991,1.65 6.94539,8.7375 11.56773,15.75 l 8.40427,12.75 5.99615,0 c 3.8017,0 5.99616,-0.41485 5.99616,-1.13354 0,-1.98515 -13.30284,-22.18358 -17.82611,-27.06636 -2.39462,-2.58495 -4.09261,-5.1226 -3.77332,-5.63922 0.31929,-0.51663 1.82228,-1.24921 3.33998,-1.62796 4.21453,-1.05176 9.04741,-5.19697 11.3723,-9.75413 1.67064,-3.27472 2.01783,-5.46037 1.71596,-10.80258 -0.4856,-8.59392 -3.64934,-13.73502 -10.51283,-17.08343 -4.49412,-2.19249 -6.22411,-2.37492 -25.88598,-2.72972 -19.39361,-0.34995 -21.21587,-0.23433 -22.90338,1.45318 -1.71126,1.71126 -1.79001,3.36709 -1.1823,24.85857 0.35809,12.66385 0.65211,29.01121 0.65338,36.32745 l 0.002,13.30226 5.25,-0.30226 5.25,-0.30226 0.27588,-15.84565 z m 1.47412,-26.24508 c -0.88849,-0.40937 -1.25,-3.7331 -1.25,-11.4926 l 0,-10.91667 14.25,0.002 c 17.13555,0.002 20.41894,1.09478 22.64671,7.53815 1.24352,3.59661 1.20762,4.43818 -0.32727,7.67273 -2.56062,5.39609 -6.09517,6.60651 -21.12105,7.23295 -7.12162,0.29691 -13.51089,0.28066 -14.19839,-0.0361 z m 74.14301,41.00894 c 0.33385,-0.86998 0.60699,-8.06998 0.60699,-16 l 0,-14.41821 8.9652,0 c 8.63554,0 9.0975,0.11616 12.56288,3.15879 1.97871,1.73734 7.3961,8.93734 12.03863,16 l 8.44098,12.84121 5.99615,0 c 3.51584,0 5.99616,-0.43373 5.99616,-1.04854 0,-1.96987 -14.84335,-24.44342 -18.42584,-27.89763 -1.96579,-1.89539 -3.57416,-3.78683 -3.57416,-4.2032 0,-0.41637 2.12106,-1.69529 4.71346,-2.84203 9.31097,-4.11868 12.69791,-9.72249 12.11469,-20.04413 -0.47652,-8.43322 -3.8376,-13.82232 -10.68978,-17.13981 -4.25335,-2.05926 -6.38649,-2.27957 -25.69804,-2.65406 -26.34298,-0.51085 -24.99553,-1.27723 -24.07942,13.69548 0.3515,5.74477 0.63909,22.07504 0.63909,36.28948 l 0,25.84444 4.89301,0 c 3.5393,0 5.06094,-0.43762 5.5,-1.58179 z m 1.85699,-41.00628 c -0.88833,-0.41119 -1.25,-3.73718 -1.25,-11.49526 l 0,-10.91667 14.54966,0 c 16.16604,0 19.28666,0.849 21.93341,5.96727 1.91651,3.70611 1.90574,5.41111 -0.0603,9.55433 -2.41847,5.09654 -6.31384,6.38502 -21.05278,6.96366 -7.07847,0.27789 -13.43245,0.24489 -14.11995,-0.0733 z m 154.14301,41.00628 c 0.33385,-0.86998 0.60699,-8.06998 0.60699,-16 l 0,-14.41821 8.9652,0 c 8.68486,0 9.08153,0.10163 12.68514,3.25 2.04596,1.7875 7.46337,8.9875 12.03868,16 l 8.31876,12.75 5.99611,0 c 3.4401,0 5.99611,-0.43827 5.99611,-1.02813 0,-2.07063 -15.01113,-24.58931 -18.95356,-28.43285 l -4.0629,-3.96098 5.92961,-2.69166 c 4.34658,-1.97307 6.66414,-3.8016 8.68095,-6.84921 3.24168,-4.89851 4.27362,-12.87792 2.39975,-18.55581 -1.72046,-5.21304 -7.44547,-11.23471 -11.84231,-12.45596 -2.00835,-0.55784 -13.43904,-1.01676 -25.40154,-1.01982 l -21.75,-0.006 0,37.5 0,37.5 4.89301,0 c 3.5393,0 5.06094,-0.43762 5.5,-1.58179 z m 1.35699,-40.96185 c -0.4125,-0.43433 -0.75,-5.66469 -0.75,-11.62303 l 0,-10.83333 14.54966,0 c 11.04933,0 15.25537,0.36494 17.48307,1.51693 3.16015,1.63417 5.96727,6.09519 5.96727,9.48307 0,3.74153 -3.01627,8.10885 -6.6485,9.62649 -3.88825,1.62462 -29.35042,3.14717 -30.6015,1.82987 z"
         id="path3359"
         inkscape:connector-curvature="0" />
      <path
         style="fill:#e93636"
         d="m 277.75719,692.3073 c -1.27284,-0.51048 -2.03378,-1.38196 -1.69099,-1.93661 0.41158,-0.66595 31.41981,-1.00846 91.29793,-1.00846 l 90.67467,0 64.01632,-63.99309 64.01631,-63.99309 0.5,-90.25691 c 0.32918,-59.42223 0.84163,-90.17153 1.5,-90.007 0.65519,0.16375 1.08803,31.70872 1.2553,91.48608 l 0.25531,91.23616 -64.76393,64.76393 -64.76392,64.76392 -89.99138,-0.0634 c -52.85799,-0.0372 -90.94631,-0.44637 -92.30562,-0.99154 z m -60.59058,-72.84988 -61.89877,-61.90481 0.5407,-87.20633 c 0.51663,-83.32161 0.62362,-87.28767 2.4018,-89.03252 1.39304,-1.36692 44.16245,-11.14724 170.0612,-38.88886 92.51006,-20.38447 168.84123,-37.06267 169.62483,-37.06267 1.29374,0 56.8808,53.16994 72.80701,69.64111 l 6.63196,6.85889 0.58826,87.5 0.58826,87.5 -62.20936,62.25 -62.20936,62.25 -87.51388,0 -87.51388,0 -61.89877,-61.90481 z M 452.84065,505.55046 c 11.41926,-5.62168 17.90886,-15.31837 19.69844,-29.43316 2.54746,-20.0923 -6.59465,-37.70662 -22.721,-43.7771 -4.83736,-1.82094 -7.32898,-2.10404 -15.74666,-1.78912 -8.75125,0.3274 -10.66039,0.73605 -15.2884,3.27246 -6.72699,3.68678 -12.66685,10.12519 -16.019,17.36354 -2.1949,4.73948 -2.69297,7.44715 -3.02095,16.42293 -0.33697,9.2215 -0.0747,11.64861 1.84672,17.09132 5.87423,16.63947 18.34159,25.05875 36.10846,24.38424 7.29614,-0.277 9.63186,-0.82229 15.14239,-3.53511 z m -23.36527,-8.56205 c -11.22145,-3.02465 -16.90395,-12.00593 -16.90395,-26.71696 0,-17.93323 8.4458,-27.83368 23.78984,-27.88726 6.91175,-0.0241 11.88433,1.92493 16.37957,6.42018 4.84634,4.84634 6.27675,9.21849 6.66062,20.35868 0.32893,9.54588 0.15694,10.70553 -2.34672,15.82281 -3.23572,6.61358 -8.52622,10.79092 -15.58317,12.30437 -5.96854,1.28002 -6.14397,1.2756 -11.99619,-0.30182 z m -189.40395,5.87382 0,-5 -22.25,-0.26913 -22.25,-0.26913 0,-10.98087 0,-10.98087 18.56574,0 c 10.88549,0 19.3659,-0.42823 20.5,-1.03518 1.38483,-0.74114 1.92991,-2.09039 1.91895,-4.75 -0.0279,-6.75792 0.20599,-6.68133 -21.4466,-7.02425 l -19.53809,-0.30942 0,-9.44058 0,-9.44057 20.8,0 c 14.84444,0 21.14359,-0.34359 22,-1.2 1.55432,-1.55432 1.55432,-9.04568 0,-10.6 -0.87336,-0.87336 -8.46168,-1.2 -27.87756,-1.2 -22.69994,0 -26.86645,0.22761 -27.94451,1.52659 -1.00173,1.20702 -1.11348,9.2118 -0.53383,38.23887 0.40322,20.19176 0.94911,37.06175 1.21308,37.48887 0.26398,0.42712 13.1616,0.65713 28.66139,0.51113 l 28.18143,-0.26546 0,-5 z m 23.46482,3.56574 c 0.57283,-1.07035 1.03518,-8.21647 1.03518,-16 l 0,-14.06574 8.48422,0 c 7.84537,0 8.71516,0.20707 11.55109,2.75 1.68678,1.5125 6.98138,8.6 11.76578,15.75 l 8.69891,13 6.26294,0.29805 c 4.79361,0.22813 6.39557,-0.0476 6.82824,-1.17505 0.69126,-1.80142 -12.97921,-23.65641 -18.08706,-28.91579 l -3.64311,-3.75119 3.44877,-1.44099 c 4.9269,-2.05859 9.46996,-6.16295 11.73407,-10.60098 3.86793,-7.58178 1.82785,-20.0973 -4.17558,-25.61632 -5.46365,-5.02281 -8.92356,-5.68325 -31.95135,-6.09902 -19.18566,-0.34641 -21.76921,-0.20356 -23.25878,1.28601 -1.52832,1.52832 -1.62359,4.85698 -1.0832,37.84549 0.32588,19.89339 0.76571,36.73229 0.9774,37.41979 0.24074,0.78185 2.25607,1.25 5.38109,1.25 3.91614,0 5.21998,-0.41814 6.03139,-1.93426 z m 1.70185,-42.73241 c -0.36667,-0.36666 -0.66667,-5.12408 -0.66667,-10.57204 l 0,-9.90538 14.98008,0.32204 c 14.8205,0.31862 15.00933,0.35134 17.72727,3.07205 3.7664,3.77024 3.8305,9.6667 0.14514,13.35205 -2.09609,2.0961 -4.03612,2.76812 -9.97727,3.45609 -8.9507,1.03647 -21.29432,1.18943 -22.20855,0.27519 z m 74.50921,39.66667 c 0.37173,-2.475 0.70923,-9.5625 0.75,-15.75 l 0.0741,-11.25 8.48422,0 c 7.92284,0 8.69613,0.18934 11.68676,2.86146 1.76139,1.5738 7.05599,8.6613 11.76577,15.75 l 8.56325,12.88854 6.26294,0.29805 c 4.68771,0.22309 6.39967,-0.0582 6.80652,-1.11847 0.7062,-1.84033 -12.54614,-22.93259 -17.84924,-28.40861 -2.25252,-2.32597 -3.89855,-4.37504 -3.65785,-4.55349 0.2407,-0.17845 2.3723,-1.16623 4.73689,-2.19505 8.49807,-3.6975 12.74288,-11.35063 11.99908,-21.63358 -0.55862,-7.72291 -4.36991,-13.41669 -11.30499,-16.88885 -4.87601,-2.44125 -5.51413,-2.5 -27.155,-2.5 -12.18891,0 -22.51236,0.34845 -22.94101,0.77434 -0.83796,0.83257 -0.57195,74.63412 0.27394,76.0028 0.27914,0.45165 2.82979,0.68656 5.66812,0.52202 l 5.1606,-0.29916 0.67588,-4.5 z m 0.82412,-49.5 0,-10.5 13.35078,0 c 7.34292,0 14.7816,0.49879 16.53038,1.10842 6.32209,2.20389 7.82314,11.00239 2.69841,15.81683 -2.75758,2.59061 -11.18001,3.98988 -24.32957,4.04203 l -8.25,0.0327 0,-10.5 z m 154.77777,39.069 c 0.16612,-8.92968 0.71776,-15.46115 1.37244,-16.25 1.30041,-1.56689 9.76382,-1.74843 14.90664,-0.31975 4.73931,1.31658 7.77876,4.67792 17.40102,19.24384 l 8.09693,12.25691 6.23554,0.29805 c 4.608,0.22026 6.37458,-0.0643 6.76822,-1.09007 0.67033,-1.74685 -10.99911,-20.41068 -17.27865,-27.63508 -2.85185,-3.28095 -4.23505,-5.58785 -3.49779,-5.83361 4.6199,-1.53996 10.16893,-5.53323 12.71788,-9.1522 2.66509,-3.78388 3,-5.06787 3,-11.50165 0,-6.30675 -0.38753,-7.86634 -3,-12.07332 -5.30469,-8.54237 -7.10296,-9.01212 -34.5,-9.01212 l -23.5,0 -0.26257,36.99604 c -0.14442,20.34783 -0.0369,37.58402 0.23881,38.30265 0.34661,0.90324 2.12558,1.21317 5.76258,1.00396 l 5.26118,-0.30265 0.27777,-14.931 z m 1.22223,-38.94081 0,-10.62819 14.25,0.004 c 12.36045,0.003 14.67375,0.26212 17.44574,1.9523 5.9864,3.65014 5.35485,13.39447 -1.08659,16.7653 -2.27251,1.18921 -6.80912,1.74919 -16.85915,2.08103 l -13.75,0.454 0,-10.62818 z"
         id="path3357"
         inkscape:connector-curvature="0" />
      <path
         style="fill:#696969"
         d="m 277.75719,692.3073 c -1.27284,-0.51048 -2.03378,-1.38196 -1.69099,-1.93661 0.41158,-0.66595 31.41981,-1.00846 91.29793,-1.00846 l 90.67467,0 64.01632,-63.99309 64.01631,-63.99309 0.5,-90.25691 c 0.32918,-59.42223 0.84163,-90.17153 1.5,-90.007 0.65519,0.16375 1.08803,31.70872 1.2553,91.48608 l 0.25531,91.23616 -64.76393,64.76393 -64.76392,64.76392 -89.99138,-0.0634 c -52.85799,-0.0372 -90.94631,-0.44637 -92.30562,-0.99154 z m -60.43576,-73.04617 -61.75,-62.19127 0,-14.19113 c 0,-7.80511 0.29609,-27.03082 0.65798,-42.72378 l 0.65798,-28.53267 10.09202,-2.21375 c 5.55061,-1.21756 11.10452,-2.44985 12.34202,-2.73843 l 2.25,-0.52469 0,20.40841 c 0,14.53987 0.34507,20.75348 1.2,21.60841 0.87457,0.87457 8.58413,1.2 28.42857,1.2 23.41991,0 27.44838,-0.21981 28.8,-1.57143 1.85221,-1.85221 2.09383,-8.50617 0.37143,-10.22857 -0.85994,-0.85994 -7.37778,-1.2 -23,-1.2 l -21.8,0 0,-5.36043 c 0,-2.94823 0.28617,-7.44823 0.63592,-10 l 0.63593,-4.63957 10.11407,-0.005 c 5.56275,-0.003 14.48401,-0.29457 19.82504,-0.64826 l 9.71096,-0.64309 0.63777,-4.25298 c 1.28227,-8.55076 1.66782,-8.36863 -18.36983,-8.67767 l -17.68986,-0.273 24,-5.26889 c 13.2,-2.8979 24.3375,-5.2604 24.75,-5.25 0.4125,0.0104 0.75,12.36175 0.75,27.44746 0,30.68514 -0.0256,30.57143 6.8803,30.57143 6.76942,0 7.05511,-0.67989 7.35355,-17.5 l 0.26615,-15 4.99733,-0.31489 c 11.70301,-0.73743 14.1537,1.03562 25.85484,18.70574 4.67618,7.0616 9.24673,13.12499 10.15677,13.47421 2.91691,1.11932 10.04817,0.67927 11.98886,-0.73979 1.7828,-1.30361 1.49689,-1.98904 -5.52683,-13.25 -4.07378,-6.5314 -9.14615,-13.76612 -11.27194,-16.07716 l -3.86506,-4.2019 3.83301,-1.60115 c 11.46721,-4.79016 16.61908,-18.65555 11.29329,-30.39396 -1.0977,-2.41939 -1.87531,-4.50369 -1.72804,-4.63177 0.14727,-0.12808 2.73495,-0.75377 5.75039,-1.39043 3.01545,-0.63666 6.50295,-1.41365 7.75,-1.72664 l 2.26738,-0.56908 0.0153,35.85841 c 0.008,19.72213 0.38234,36.43685 0.83092,37.14384 1.15104,1.8141 7.13899,2.57392 10.40377,1.32015 l 2.75,-1.05608 0,-15.62737 0,-15.62736 8.44495,0.35261 c 8.08621,0.33764 8.5977,0.50069 12.04076,3.83829 1.97769,1.91712 7.21086,9.00462 11.62926,15.75 l 8.03345,12.26433 6.9258,0 c 6.04068,0 6.92579,-0.2335 6.92579,-1.82712 0,-2.5143 -13.31926,-23.82399 -17.75025,-28.3989 l -3.6088,-3.72601 3.5588,-1.48696 c 14.36892,-6.00372 18.16699,-24.60556 7.43328,-36.40602 -4.43661,-4.87753 -7.24282,-5.62507 -23.10496,-6.1549 l -14.97193,-0.50009 113.28521,-24.95497 c 86.41661,-19.03624 113.68526,-24.70336 114.97193,-23.89411 2.31712,1.45734 2.88542,21.62301 3.05375,108.36002 l 0.13297,68.51094 -61.76889,61.73906 -61.76889,61.73906 -87.48111,0.0451 -87.48111,0.0451 -61.75,-62.19127 z M 450.65095,507.01942 c 14.30806,-5.88616 21.62982,-17.09118 22.64625,-34.65719 0.84015,-14.51952 -3.1221,-25.50177 -12.22945,-33.89663 -6.42459,-5.92198 -12.37308,-8.34648 -21.85511,-8.90775 -10.065,-0.59578 -17.19601,1.03035 -23.84515,5.43755 -10.03602,6.65211 -15.53681,17.12437 -16.53396,31.47692 -1.27201,18.30898 8.18627,35.07877 22.99486,40.77051 7.71784,2.96639 21.32518,2.86091 28.82256,-0.22341 z m -25.17224,-11.98336 c -2.424,-1.2794 -5.83592,-4.19499 -7.58204,-6.4791 -8.50219,-11.12176 -6.01837,-34.35583 4.43537,-41.48904 11.87589,-8.10365 27.01514,-4.79801 33.73939,7.36695 2.79826,5.06239 3,6.13344 3,15.92736 0,11.54541 -1.4202,15.7508 -7.15842,21.19695 -6.5274,6.19518 -18.34028,7.74891 -26.4343,3.47688 z m 70.48573,11.74438 c 0.33385,-0.86998 0.60699,-8.06998 0.60699,-16 l 0,-14.41821 7.75,0.004 c 10.89299,0.005 12.33735,1.11377 23.40375,17.96199 l 9.21812,14.03401 6.81406,0 c 5.62899,0 6.81407,-0.2832 6.81407,-1.62835 0,-2.09415 -12.02124,-21.41134 -17.22534,-27.67978 -2.19546,-2.64447 -3.8304,-4.9293 -3.6332,-5.07741 0.1972,-0.1481 1.7697,-0.83028 3.49446,-1.51594 4.08045,-1.62214 9.30453,-6.75349 11.01185,-10.8164 1.86685,-4.44251 1.72427,-14.64279 -0.25972,-18.58178 -2.76701,-5.49356 -7.51449,-9.66041 -12.79228,-11.22774 -7.36578,-2.1874 -45.80655,-2.12848 -47.63362,0.073 -1.01772,1.22627 -1.15353,9.08551 -0.65735,38.03903 0.34397,20.07138 0.89267,36.92585 1.21932,37.45439 0.32665,0.52853 2.99421,0.96097 5.92791,0.96097 3.94141,0 5.49246,-0.41297 5.94098,-1.58179 z m 0.60699,-53.49198 0,-10.07378 14.43066,0.32378 c 12.73015,0.28562 14.75655,0.56743 17.19617,2.3915 3.63249,2.71596 4.67648,6.77058 2.86167,11.11405 -2.1617,5.17365 -6.04859,6.31822 -21.45638,6.31822 l -13.03212,0 0,-10.07377 z m -231,2.36983 0,-7.98757 7.52842,-1.65424 c 10.31832,-2.26728 18.13791,-2.15508 22.19474,0.31847 5.5012,3.35422 5.56084,10.25049 0.12364,14.29811 -2.23636,1.66482 -4.78942,2.05665 -16.25,2.49397 l -13.5968,0.51883 0,-7.98757 z m 75,2.84351 c 0,-2.67323 0.28617,-6.94823 0.63592,-9.5 l 0.63593,-4.63957 13.78735,0 c 13.37379,0 13.87964,0.0777 16.86407,2.58889 5.66968,4.77072 3.08046,13.20499 -4.71876,15.37109 -2.03748,0.56588 -8.99201,1.03138 -15.45451,1.03444 l -11.75,0.006 0,-4.86043 z"
         id="path3355"
         inkscape:connector-curvature="0" />
      <path
         style="fill:#d82626"
         d="m 217.32143,619.26113 -61.75,-62.19127 0,-14.19113 c 0,-7.80511 0.29609,-27.03082 0.65798,-42.72378 l 0.65798,-28.53267 10.09202,-2.21375 c 5.55061,-1.21756 11.10452,-2.44985 12.34202,-2.73843 l 2.25,-0.52469 0,20.40841 c 0,14.53987 0.34507,20.75348 1.2,21.60841 0.87457,0.87457 8.58413,1.2 28.42857,1.2 23.41991,0 27.44838,-0.21981 28.8,-1.57143 1.85221,-1.85221 2.09383,-8.50617 0.37143,-10.22857 -0.85994,-0.85994 -7.37778,-1.2 -23,-1.2 l -21.8,0 0,-5.36043 c 0,-2.94823 0.28617,-7.44823 0.63592,-10 l 0.63593,-4.63957 10.11407,-0.005 c 5.56275,-0.003 14.48401,-0.29457 19.82504,-0.64826 l 9.71096,-0.64309 0.63777,-4.25298 c 1.28227,-8.55076 1.66782,-8.36863 -18.36983,-8.67767 l -17.68986,-0.273 24,-5.26889 c 13.2,-2.8979 24.3375,-5.2604 24.75,-5.25 0.4125,0.0104 0.75,12.36175 0.75,27.44746 0,30.68514 -0.0256,30.57143 6.8803,30.57143 6.76942,0 7.05511,-0.67989 7.35355,-17.5 l 0.26615,-15 4.99733,-0.31489 c 11.70301,-0.73743 14.1537,1.03562 25.85484,18.70574 4.67618,7.0616 9.24673,13.12499 10.15677,13.47421 2.91691,1.11932 10.04817,0.67927 11.98886,-0.73979 1.7828,-1.30361 1.49689,-1.98904 -5.52683,-13.25 -4.07378,-6.5314 -9.14615,-13.76612 -11.27194,-16.07716 l -3.86506,-4.2019 3.83301,-1.60115 c 11.46721,-4.79016 16.61908,-18.65555 11.29329,-30.39396 -1.0977,-2.41939 -1.87531,-4.50369 -1.72804,-4.63177 0.14727,-0.12808 2.73495,-0.75377 5.75039,-1.39043 3.01545,-0.63666 6.50295,-1.41365 7.75,-1.72664 l 2.26738,-0.56908 0.0153,35.85841 c 0.008,19.72213 0.38234,36.43685 0.83092,37.14384 1.15104,1.8141 7.13899,2.57392 10.40377,1.32015 l 2.75,-1.05608 0,-15.62737 0,-15.62736 8.44495,0.35261 c 8.08621,0.33764 8.5977,0.50069 12.04076,3.83829 1.97769,1.91712 7.21086,9.00462 11.62926,15.75 l 8.03345,12.26433 6.9258,0 c 6.04068,0 6.92579,-0.2335 6.92579,-1.82712 0,-2.5143 -13.31926,-23.82399 -17.75025,-28.3989 l -3.6088,-3.72601 3.5588,-1.48696 c 14.36892,-6.00372 18.16699,-24.60556 7.43328,-36.40602 -4.43661,-4.87753 -7.24282,-5.62507 -23.10496,-6.1549 l -14.97193,-0.50009 113.28521,-24.95497 c 86.41661,-19.03624 113.68526,-24.70336 114.97193,-23.89411 2.31712,1.45734 2.88542,21.62301 3.05375,108.36002 l 0.13297,68.51094 -61.76889,61.73906 -61.76889,61.73906 -87.48111,0.0451 -87.48111,0.0451 -61.75,-62.19127 z M 450.65095,507.01942 c 14.30806,-5.88616 21.62982,-17.09118 22.64625,-34.65719 0.84015,-14.51952 -3.1221,-25.50177 -12.22945,-33.89663 -6.42459,-5.92198 -12.37308,-8.34648 -21.85511,-8.90775 -10.065,-0.59578 -17.19601,1.03035 -23.84515,5.43755 -10.03602,6.65211 -15.53681,17.12437 -16.53396,31.47692 -1.27201,18.30898 8.18627,35.07877 22.99486,40.77051 7.71784,2.96639 21.32518,2.86091 28.82256,-0.22341 z m -25.17224,-11.98336 c -2.424,-1.2794 -5.83592,-4.19499 -7.58204,-6.4791 -8.50219,-11.12176 -6.01837,-34.35583 4.43537,-41.48904 11.87589,-8.10365 27.01514,-4.79801 33.73939,7.36695 2.79826,5.06239 3,6.13344 3,15.92736 0,11.54541 -1.4202,15.7508 -7.15842,21.19695 -6.5274,6.19518 -18.34028,7.74891 -26.4343,3.47688 z m 70.48573,11.74438 c 0.33385,-0.86998 0.60699,-8.06998 0.60699,-16 l 0,-14.41821 7.75,0.004 c 10.89299,0.005 12.33735,1.11377 23.40375,17.96199 l 9.21812,14.03401 6.81406,0 c 5.62899,0 6.81407,-0.2832 6.81407,-1.62835 0,-2.09415 -12.02124,-21.41134 -17.22534,-27.67978 -2.19546,-2.64447 -3.8304,-4.9293 -3.6332,-5.07741 0.1972,-0.1481 1.7697,-0.83028 3.49446,-1.51594 4.08045,-1.62214 9.30453,-6.75349 11.01185,-10.8164 1.86685,-4.44251 1.72427,-14.64279 -0.25972,-18.58178 -2.76701,-5.49356 -7.51449,-9.66041 -12.79228,-11.22774 -7.36578,-2.1874 -45.80655,-2.12848 -47.63362,0.073 -1.01772,1.22627 -1.15353,9.08551 -0.65735,38.03903 0.34397,20.07138 0.89267,36.92585 1.21932,37.45439 0.32665,0.52853 2.99421,0.96097 5.92791,0.96097 3.94141,0 5.49246,-0.41297 5.94098,-1.58179 z m 0.60699,-53.49198 0,-10.07378 14.43066,0.32378 c 12.73015,0.28562 14.75655,0.56743 17.19617,2.3915 3.63249,2.71596 4.67648,6.77058 2.86167,11.11405 -2.1617,5.17365 -6.04859,6.31822 -21.45638,6.31822 l -13.03212,0 0,-10.07377 z m -231,2.36983 0,-7.98757 7.52842,-1.65424 c 10.31832,-2.26728 18.13791,-2.15508 22.19474,0.31847 5.5012,3.35422 5.56084,10.25049 0.12364,14.29811 -2.23636,1.66482 -4.78942,2.05665 -16.25,2.49397 l -13.5968,0.51883 0,-7.98757 z m 75,2.84351 c 0,-2.67323 0.28617,-6.94823 0.63592,-9.5 l 0.63593,-4.63957 13.78735,0 c 13.37379,0 13.87964,0.0777 16.86407,2.58889 5.66968,4.77072 3.08046,13.20499 -4.71876,15.37109 -2.03748,0.56588 -8.99201,1.03138 -15.45451,1.03444 l -11.75,0.006 0,-4.86043 z"
         id="path3353"
         inkscape:connector-curvature="0" />
      <path
         style="fill:#c81515"
         d="m 233.0127,634.11223 c -69.27725,-69.57712 -76.44127,-77.14216 -76.44127,-80.72025 0,-2.27291 0.54055,-3.12371 2.25,-3.54133 1.2375,-0.30232 50.175,-11.12179 108.75,-24.04326 l 106.5,-23.49358 3,3.52425 c 2.9567,3.47339 3.11231,3.52426 10.78138,3.52421 9.16444,-5e-5 10.18278,-1.05019 6.82015,-7.03317 l -2.17505,-3.86999 3.78676,-0.9429 c 2.08272,-0.5186 4.7576,-1.16237 5.94419,-1.43061 1.58386,-0.35805 3.28071,0.65682 6.38257,3.81739 2.32383,2.3678 6.97798,5.57728 10.34257,7.13217 5.54097,2.56067 7.15398,2.82707 17.11743,2.82707 9.75316,0 11.62342,-0.29359 16.5,-2.59016 3.025,-1.42459 7.03002,-3.88391 8.90006,-5.46516 4.22775,-3.57488 9.49542,-11.69492 11.1334,-17.16203 0.94322,-3.14819 1.86201,-4.2824 3.85258,-4.75587 1.43768,-0.34197 3.3896,-0.85195 4.3376,-1.13329 1.57059,-0.46611 1.74817,0.84776 2,14.79749 l 0.27636,15.30902 6.5,0 6.5,0 0.67588,-4.5 c 0.37173,-2.475 0.70923,-9.5625 0.75,-15.75 l 0.0741,-11.25 6.75,0.004 c 4.95296,0.003 7.61102,0.52872 9.98415,1.97566 3.46019,2.10975 9.25564,9.51031 16.90999,21.59342 5.17534,8.16977 6.115,8.70721 14.39994,8.23626 4.0611,-0.23086 5.51518,-0.71977 5.74536,-1.93178 0.32235,-1.69731 -9.7043,-18.98429 -15.19296,-26.19421 -5.02725,-6.60383 -5.01199,-6.48264 -1.026,-8.14809 2.00811,-0.83904 5.06375,-3.0417 6.79031,-4.89479 2.90555,-3.11848 4.30299,-3.62614 18.77425,-6.82031 l 15.63505,-3.45105 0.70337,44.06557 c 0.38685,24.23607 0.55108,46.60046 0.36496,49.69864 l -0.33842,5.63281 -61.20541,61.61693 -61.2054,61.61694 -87.79863,0 -87.79862,0 -46.05067,-46.25 z M 427.94148,494.92184 c -2.63134,-1.14512 -5.40789,-3.55961 -4.09339,-3.55961 0.21709,0 7.31713,-1.55151 15.77789,-3.4478 8.46075,-1.89629 15.49726,-3.33373 15.63668,-3.19431 0.79103,0.79104 -6.47837,8.00303 -9.74812,9.67113 -4.53714,2.31468 -12.89367,2.56699 -17.57306,0.53059 z"
         id="path3351"
         inkscape:connector-curvature="0" />
      <path
         style="fill:#b90606"
         d="m 254.17762,654.61223 c -13.88981,-14.1625 -26.9248,-27.6227 -28.96665,-29.91155 l -3.71245,-4.16156 7.11983,-1.61937 c 13.87313,-3.15538 347.04747,-76.55752 347.49668,-76.55752 0.25102,0 0.44305,3.2625 0.42674,7.25 l -0.0297,7.25 -61.22034,61.7907 -61.2203,61.79071 -87.31981,-0.0407 -87.3198,-0.0407 -25.2542,-25.75 z"
         id="path3349"
         inkscape:connector-curvature="0" />
    </g>
  </g>
</svg>
