<?xml version="1.0" standalone="no"?>
<!DOCTYPE svg PUBLIC "-//W3C//DTD SVG 20010904//EN"
 "http://www.w3.org/TR/2001/REC-SVG-20010904/DTD/svg10.dtd">
<svg version="1.0" xmlns="http://www.w3.org/2000/svg"
 width="784.000000pt" height="784.000000pt" viewBox="0 0 784.000000 784.000000"
 preserveAspectRatio="xMidYMid meet">
<metadata>
Created by potrace 1.11, written by Peter Selinger 2001-2013
</metadata>
<g transform="translate(0.000000,784.000000) scale(0.100000,-0.100000)"
fill="#000000" stroke="none">
<path d="M3789 7618 c-34 -18 -74 -49 -90 -68 -15 -19 -267 -522 -559 -1117
-480 -975 -535 -1083 -559 -1087 -14 -3 -548 -82 -1186 -176 -638 -94 -1176
-175 -1195 -182 -85 -27 -158 -105 -181 -192 -16 -60 -5 -146 25 -203 19 -35
261 -276 896 -892 584 -567 869 -850 866 -860 -19 -65 -406 -2351 -406 -2397
0 -148 123 -266 276 -266 52 0 77 6 136 34 40 19 533 276 1095 571 l1022 535
1068 -559 c723 -378 1084 -562 1119 -569 162 -34 327 100 327 265 0 33 -89
575 -201 1221 -111 638 -202 1165 -202 1171 0 5 394 396 876 868 693 678 881
868 898 904 29 65 29 180 -1 237 -35 65 -70 101 -126 128 -46 23 -190 45
-1256 195 -662 94 -1204 171 -1205 173 -1 2 -240 489 -532 1083 -482 982 -533
1084 -579 1130 -90 92 -212 112 -326 53z m864 -1945 c215 -437 324 -647 340
-658 16 -10 309 -56 898 -140 481 -69 880 -126 887 -127 8 -2 -427 -322 -965
-712 -538 -391 -1634 -1186 -2436 -1769 -802 -582 -1460 -1057 -1462 -1055 -2
1 62 386 141 853 79 468 145 868 145 889 1 38 -5 45 -177 216 -99 97 -482 470
-852 830 -370 359 -671 654 -669 657 2 2 521 78 1153 168 632 91 1160 170
1174 175 14 6 31 20 38 31 11 18 798 1623 970 1979 l75 155 211 -425 c116
-234 354 -714 529 -1067z"/>
</g>
</svg>
